<svg id="visual" viewBox="0 0 1920 900" width="1920" height="900" xmlns="http://www.w3.org/2000/svg" xmlns:xlink="http://www.w3.org/1999/xlink" version="1.1"><rect x="0" y="0" width="1920" height="900" fill="#ffffff"></rect><path d="M0 608L274 633L549 643L823 556L1097 659L1371 662L1646 575L1920 570L1920 901L1646 901L1371 901L1097 901L823 901L549 901L274 901L0 901Z" fill="#8ffc71"></path><path d="M0 689L274 715L549 702L823 612L1097 660L1371 602L1646 713L1920 658L1920 901L1646 901L1371 901L1097 901L823 901L549 901L274 901L0 901Z" fill="#71e061"></path><path d="M0 734L274 668L549 696L823 764L1097 670L1371 720L1646 742L1920 759L1920 901L1646 901L1371 901L1097 901L823 901L549 901L274 901L0 901Z" fill="#53c451"></path><path d="M0 739L274 770L549 727L823 810L1097 807L1371 774L1646 792L1920 753L1920 901L1646 901L1371 901L1097 901L823 901L549 901L274 901L0 901Z" fill="#33a941"></path><path d="M0 858L274 792L549 810L823 846L1097 809L1371 831L1646 855L1920 790L1920 901L1646 901L1371 901L1097 901L823 901L549 901L274 901L0 901Z" fill="#008f32"></path></svg>